HIERARCHY
ROOT root
{
	OFFSET	0	13.1	24.9
	CHANNELS 6  Xposition Yposition Zposition Xrotation Yrotation Zrotation
	JOINT spine_1
	{
		OFFSET	0	9.99999	0
		CHANNELS 3  Xrotation Yrotation Zrotation
		JOINT spine_2
		{
			OFFSET	0	112	-10
			CHANNELS 3  Xrotation Yrotation Zrotation
			JOINT spine_3
			{
				OFFSET	0	206.5	19.3
				CHANNELS 3  Xrotation Yrotation Zrotation
				JOINT spine_4
				{
					OFFSET	0	110.4	14.6
					CHANNELS 3  Xrotation Yrotation Zrotation
					JOINT neck_1
					{
						OFFSET	0	71.8	-50.3
						CHANNELS 3  Xrotation Yrotation Zrotation
						JOINT neck_2
						{
							OFFSET	0	86.2	-25.8
							CHANNELS 3  Xrotation Yrotation Zrotation
							JOINT head_ee
							{
								OFFSET	0	179.8	-8.7
								CHANNELS 3  Xrotation Yrotation Zrotation
								End Site
								{
									OFFSET	1	0	0
								}
							}
						}
					}
					JOINT left_clavicle
					{
						OFFSET	-43.2	22.4	-70.8
						CHANNELS 3  Xrotation Yrotation Zrotation
						JOINT left_shoulder
						{
							OFFSET	-93.9	-5.79999	48.7
							CHANNELS 3  Xrotation Yrotation Zrotation
							JOINT left_elbow
							{
								OFFSET	-291.4	-30.8	15.2
								CHANNELS 3  Xrotation Yrotation Zrotation
								JOINT left_lowarm_twist
								{
									OFFSET	-110.7	-3.89999	13.6
									CHANNELS 3  Xrotation Yrotation Zrotation
									JOINT left_hand
									{
										OFFSET	-110.7	-3.89999	13.6
										CHANNELS 3  Xrotation Yrotation Zrotation
										JOINT left_ee
										{
											OFFSET	-80.8	-5.10001	12.1
											CHANNELS 3  Xrotation Yrotation Zrotation
											End Site
											{
												OFFSET	1	0	0
											}
										}
									}
								}
							}
						}
					}
					JOINT right_clavicle
					{
						OFFSET	43.2	22.4	-70.8
						CHANNELS 3  Xrotation Yrotation Zrotation
						JOINT right_shoulder
						{
							OFFSET	93.9	-5.79999	48.7
							CHANNELS 3  Xrotation Yrotation Zrotation
							JOINT right_elbow
							{
								OFFSET	291.4	-30.8	15.2
								CHANNELS 3  Xrotation Yrotation Zrotation
								JOINT right_lowarm_twist
								{
									OFFSET	110.7	-3.89999	13.6
									CHANNELS 3  Xrotation Yrotation Zrotation
									JOINT right_hand
									{
										OFFSET	110.7	-3.89999	13.6
										CHANNELS 3  Xrotation Yrotation Zrotation
										JOINT right_ee
										{
											OFFSET	80.8	-5.10001	12.1
											CHANNELS 3  Xrotation Yrotation Zrotation
											End Site
											{
												OFFSET	1	0	0
											}
										}
									}
								}
							}
						}
					}
				}
			}
		}
	}
	JOINT left_hip
	{
		OFFSET	-82.8	-127.5	0.300001
		CHANNELS 3  Xrotation Yrotation Zrotation
		JOINT left_knee
		{
			OFFSET	-28.2	-396.7	2.2
			CHANNELS 3  Xrotation Yrotation Zrotation
			JOINT left_ankle
			{
				OFFSET	-11.7	-411.3	35.4
				CHANNELS 3  Xrotation Yrotation Zrotation
				JOINT left_toes
				{
					OFFSET	0	-60	-88.6
					CHANNELS 3  Xrotation Yrotation Zrotation
					JOINT left_foot_ee
					{
						OFFSET	-22.5	-16.5	-42.2
						CHANNELS 3  Xrotation Yrotation Zrotation
						End Site
						{
							OFFSET	1	0	0
						}
					}
				}
			}
		}
	}
	JOINT right_hip
	{
		OFFSET	82.8	-127.5	0.300001
		CHANNELS 3  Xrotation Yrotation Zrotation
		JOINT right_knee
		{
			OFFSET	28.2	-396.7	2.2
			CHANNELS 3  Xrotation Yrotation Zrotation
			JOINT right_ankle
			{
				OFFSET	11.7	-411.3	35.4
				CHANNELS 3  Xrotation Yrotation Zrotation
				JOINT right_toes
				{
					OFFSET	0	-60	-88.6
					CHANNELS 3  Xrotation Yrotation Zrotation
					JOINT right_foot_ee
					{
						OFFSET	22.5	-16.5	-42.2
						CHANNELS 3  Xrotation Yrotation Zrotation
						End Site
						{
							OFFSET	1	0	0
						}
					}
				}
			}
		}
	}
}
MOTION
Frames: 13
Frame Time: 0.02
1244.5 696.746 -1536.58 12.0947 50.1732 -4.62642 -2.72348 0.036032 -1.14486 -2.72276 0.108805 -1.14025 -2.72424 0.397588 -1.07422 -2.72578 0.222957 -1.12353 -2.96197 14.2583 3.51455 -2.72475 23.2304 5.67922 -0.0 0.0 -0.0 4.69184 15.9128 9.31295 -28.074 -17.0025 68.0471 1.2813 -32.4025 0.372295 -23.0045 -1.35043 2.59322 0.239842 7.79513 4.8026 -0.0 0.0 -0.0 11.5494 13.8949 -23.2069 -11.0 33.1321 -46.2016 1.30375 32.8543 -0.3844 -21.1663 1.20518 -2.40787 -6.75056 -7.475 45.8222 0.0 0.0 0.0 15.4508 -45.3601 -13.9778 -17.6126 0.316417 2.67367 14.0255 28.7759 -2.10606 32.8808 -0.0 -0.0 -0.0 0.0 -0.0 -12.5139 34.514 -6.91756 -25.4128 -0.192263 -3.86322 41.2259 -9.98989 4.98241 -9.65382 0.0 0.0 0.0 0.0 0.0 
1215.37 698.79 -1542.33 11.8387 49.8503 -4.23356 -2.40181 0.010332 -1.38724 -2.40074 0.0985761 -1.38377 -2.40214 0.442791 -1.31473 -2.40448 0.229618 -1.36815 -2.78942 15.1627 4.87535 -2.51309 23.7879 7.18367 -0.0 0.0 -0.0 4.7468 16.3628 9.39731 -28.4707 -15.3347 68.0359 1.32713 -33.3201 0.397166 -21.9362 -1.26529 2.48606 0.384837 8.1014 5.86877 -0.0 0.0 -0.0 11.6113 11.9251 -23.3882 -12.7525 31.9388 -46.8767 1.24861 31.7365 -0.354941 -22.5434 1.31343 -2.54716 -6.81028 -5.54983 48.1042 0.0 0.0 0.0 15.5513 -45.372 -12.8855 -21.8812 0.268545 3.32673 16.9222 28.2714 -2.50641 33.5293 -0.0 -0.0 -0.0 0.0 -0.0 -12.6592 36.0399 -6.66582 -26.6158 -0.158741 -4.0448 40.9192 -10.3445 4.95903 -7.90624 0.0 0.0 0.0 0.0 0.0 
1178.58 699.401 -1545.57 13.9281 49.2007 -4.9511 -2.35431 -0.195964 -1.56186 -2.35295 -0.0961943 -1.57116 -2.3488 0.299817 -1.54529 -2.35213 0.0520365 -1.57324 -7.37117 15.1092 6.09236 -7.3133 23.8282 9.20924 -0.0 0.0 -0.0 4.11834 16.692 8.39952 -27.7576 -15.4005 69.5819 1.37818 -34.3199 0.425582 -20.9656 -1.18968 2.38735 0.489085 8.00123 6.50826 -0.0 0.0 -0.0 11.508 10.4419 -23.1687 -15.0527 30.3816 -47.0863 1.17769 30.2578 -0.318413 -23.6536 1.40312 -2.65755 -6.80986 -3.81457 49.6146 0.0 0.0 0.0 11.8021 -46.3554 -12.6457 -27.6795 0.125928 4.20475 12.6139 27.2183 -1.88409 32.4123 -0.0 -0.0 -0.0 0.0 -0.0 -14.6664 34.9669 -6.28845 -26.4952 -0.162275 -4.02662 39.2371 -10.3473 4.81147 -6.78548 0.0 0.0 0.0 0.0 0.0 
1152.0 707.727 -1546.4 14.0041 47.6161 -4.00715 -2.56555 -0.357237 -1.83732 -2.56371 -0.23962 -1.85632 -2.55355 0.238873 -1.85642 -2.55836 -0.0572576 -1.87084 -6.32208 15.5631 6.65068 -6.18745 24.0282 9.65622 -0.0 0.0 -0.0 4.36827 14.3073 8.78786 -25.9241 -14.879 70.375 1.40026 -34.7451 0.438097 -18.7792 -1.02561 2.16045 0.516374 6.89845 6.24964 -0.0 0.0 -0.0 11.5525 11.6785 -23.2589 -16.6745 29.1541 -46.7864 1.02855 26.9987 -0.246926 -26.169 1.61419 -2.90118 -6.78238 -1.70708 51.1248 0.0 0.0 0.0 10.1108 -45.2414 -12.2831 -28.7818 0.0887947 4.36984 14.2456 27.8486 -2.12448 32.9129 -0.0 -0.0 -0.0 0.0 -0.0 -15.3818 35.5766 -5.15525 -24.9803 -0.203381 -3.79778 39.8823 -9.77825 4.86452 -7.43562 0.0 0.0 0.0 0.0 0.0 
1127.32 710.556 -1551.86 14.8056 46.8607 -3.42641 -2.49118 -0.503671 -2.19937 -2.48856 -0.362734 -2.22695 -2.47097 0.210479 -2.24645 -2.47798 -0.146854 -2.2515 -5.79254 16.022 5.90451 -5.6441 25.3061 8.90226 -0.0 0.0 -0.0 4.97648 16.2017 9.76642 -26.206 -15.9731 69.0899 1.42633 -35.2415 0.453049 -18.2799 -0.989375 2.10778 0.865956 6.68228 8.46279 -0.0 0.0 -0.0 11.3235 10.829 -22.7533 -18.7101 28.213 -47.0061 0.963943 25.5245 -0.218339 -27.2964 1.71224 -3.00734 -6.7649 -1.37926 51.2114 0.0 0.0 0.0 8.04867 -44.3956 -12.8096 -30.4109 0.0281107 4.61247 17.4317 27.7192 -2.56763 35.2205 -0.0 -0.0 -0.0 0.0 -0.0 -15.2181 34.2589 -5.81397 -26.133 -0.172652 -3.97201 40.0561 -8.86105 4.87387 -5.03841 0.0 0.0 0.0 0.0 0.0 
1102.17 727.862 -1557.33 16.3925 46.3963 -3.98707 -2.8197 -0.577989 -2.51413 -2.81628 -0.41689 -2.54578 -2.79286 0.252901 -2.56725 -2.80202 -0.155584 -2.57498 -6.0826 16.0462 5.63147 -5.95867 25.6211 8.69257 -0.0 0.0 -0.0 5.15106 16.0791 10.0487 -25.7743 -15.9999 69.0764 1.45832 -35.8424 0.471644 -17.5098 -0.934383 2.02592 0.965965 6.26096 8.95973 -0.0 0.0 -0.0 11.0942 9.82984 -22.2471 -19.6764 26.845 -47.9254 0.869711 23.3076 -0.17938 -27.8205 1.75853 -3.05604 -6.78003 -0.978461 51.711 0.0 0.0 0.0 6.1111 -43.2593 -11.192 -31.5114 -0.0167851 4.77539 16.737 27.8601 -2.474 35.3687 -0.0 -0.0 -0.0 0.0 -0.0 -13.7625 32.9986 -6.37347 -26.0166 -0.175915 -3.95444 40.8032 -8.59811 4.937 -4.36684 0.0 0.0 0.0 0.0 0.0 
1079.45 731.821 -1562.38 16.1772 46.0024 -3.90663 -2.91317 -0.486489 -2.5046 -2.90974 -0.326181 -2.53046 -2.89056 0.341001 -2.5285 -2.89948 -0.0624738 -2.55061 -7.19606 15.5942 8.33205 -7.04198 23.0853 11.4722 -0.0 0.0 -0.0 4.63662 15.5092 9.22618 -24.1913 -16.3647 69.2885 1.42714 -35.2568 0.453515 -16.8968 -0.891406 1.96025 1.083 5.86628 9.58267 -0.0 0.0 -0.0 11.0195 12.5114 -22.0478 -20.8164 26.3087 -49.2473 0.749325 20.3646 -0.134587 -27.1466 1.69909 -2.99335 -6.73176 -0.348976 51.7047 0.0 0.0 0.0 4.05122 -45.0028 -10.9243 -31.3795 -0.0112397 4.75591 14.0011 29.2265 -2.10905 34.9038 -0.0 -0.0 -0.0 0.0 -0.0 -12.2352 35.2955 -6.94074 -29.2925 -0.0705162 -4.44608 39.5787 -9.35851 4.83492 -2.91297 0.0 0.0 0.0 0.0 0.0 
1061.22 734.207 -1561.98 16.8712 46.5716 -4.29088 -3.05437 -0.53905 -2.69467 -3.0504 -0.366555 -2.72348 -3.02726 0.358558 -2.72454 -3.03761 -0.0760643 -2.74696 -7.38808 15.5044 6.79089 -7.30841 24.0739 9.98079 -0.0 0.0 -0.0 5.12576 15.626 10.016 -25.0242 -15.982 68.219 1.48279 -36.2961 0.486051 -16.6136 -0.871786 1.92976 1.26441 5.66363 10.7125 -0.0 0.0 -0.0 10.7788 11.769 -21.5252 -21.0692 25.5371 -49.5235 0.645327 17.7279 -0.100641 -26.65 1.65576 -2.9467 -6.73147 -0.451045 51.6179 0.0 0.0 0.0 2.86797 -42.7336 -10.1422 -31.0899 0.000777361 4.71311 15.3635 28.4605 -2.29137 34.7234 -0.0 -0.0 -0.0 0.0 -0.0 -12.0564 32.9192 -6.98962 -27.8358 -0.120855 -4.22821 40.6879 -9.20432 4.93075 -1.64292 0.0 0.0 0.0 0.0 0.0 
1051.04 737.319 -1567.3 17.328 46.0203 -5.26453 -3.00203 -0.597224 -2.55296 -2.99851 -0.433618 -2.58576 -2.97368 0.255266 -2.60939 -2.98315 -0.159896 -2.61696 -7.7139 15.2254 6.86541 -7.64772 23.5737 10.0545 -0.0 0.0 -0.0 4.99829 14.1963 9.82624 -25.2338 -16.0433 68.0263 1.48099 -36.263 0.484989 -16.1468 -0.839781 1.87929 1.45179 5.5497 11.9229 -0.0 0.0 -0.0 10.5265 12.2766 -20.9537 -22.2791 25.4381 -51.0406 0.62726 17.2615 -0.0952096 -25.8971 1.59087 -2.87529 -6.74165 -0.0553704 52.0539 0.0 0.0 0.0 1.30396 -41.8383 -9.37926 -31.1756 -0.00275598 4.72578 13.8092 28.6929 -2.07395 31.3112 -0.0 -0.0 -0.0 0.0 -0.0 -7.09443 32.822 -9.47296 -33.4607 0.10397 -5.06178 38.6726 -12.2074 4.77714 -0.769305 0.0 0.0 0.0 0.0 0.0 
1027.68 741.445 -1573.01 18.7735 45.7815 -6.69534 -3.09471 -0.374565 -2.64124 -3.09085 -0.205798 -2.6597 -3.07612 0.499423 -2.62052 -3.08569 0.079448 -2.66647 -5.21534 17.1007 9.43208 -4.90487 24.5227 12.5069 -0.0 0.0 -0.0 5.231 10.9691 10.244 -18.3647 -14.2088 63.6846 1.62812 -38.884 0.57473 -14.4111 -0.724431 1.68942 1.31166 5.94254 11.135 -0.0 0.0 -0.0 9.80253 12.6209 -19.3433 -23.7456 26.0546 -52.634 0.582275 16.0899 -0.0823001 -26.3141 1.6267 -2.91495 -6.64171 -0.113377 50.9206 0.0 0.0 0.0 -0.766163 -39.9893 -7.76113 -30.8033 0.0124618 4.67066 14.259 28.4933 -2.13536 31.9367 -0.0 -0.0 -0.0 0.0 -0.0 -6.63625 31.9675 -9.83618 -30.8313 -0.0113287 -4.67482 39.3 -10.6893 4.81983 -0.482248 0.0 0.0 0.0 0.0 0.0 
1013.6 749.328 -1578.76 19.7553 46.4374 -8.10969 -3.62241 -0.496764 -2.27418 -3.6196 -0.351085 -2.30116 -3.60089 0.286118 -2.31013 -3.60833 -0.0822128 -2.32632 -8.54684 15.2316 10.1702 -8.35305 21.4617 13.4032 -0.0 0.0 -0.0 5.32807 7.28918 10.4177 -16.4892 -14.3433 60.9148 1.6748 -39.6774 0.60428 -14.9307 -0.758354 1.74661 0.839542 6.06617 8.04763 -0.0 0.0 -0.0 10.2231 12.5799 -20.2731 -23.2644 24.1518 -53.4595 0.517344 14.3744 -0.0652389 -26.2458 1.6208 -2.90847 -6.56182 -0.345593 49.8879 0.0 0.0 0.0 -2.00413 -38.6301 -6.86308 -29.4825 0.063538 4.47442 14.1025 27.7924 -2.10343 28.6418 -0.0 -0.0 -0.0 0.0 -0.0 -2.88455 31.1675 -11.1651 -31.4412 0.0138276 -4.76502 39.9779 -9.19235 4.86902 -0.0936442 0.0 0.0 0.0 0.0 0.0 
1008.67 754.436 -1581.8 21.4116 46.3386 -10.1631 -3.87982 -0.285105 -2.04164 -3.87751 -0.154641 -2.05564 -3.86841 0.418138 -2.01861 -3.87408 0.0941598 -2.05929 -10.54 13.9501 12.7168 -10.2109 17.862 15.8232 -0.0 0.0 -0.0 5.44214 6.40722 10.622 -13.3348 -13.5573 59.3374 1.70131 -40.1201 0.621284 -15.6182 -0.804042 1.82183 0.0526276 6.09669 2.88953 -0.0 0.0 -0.0 10.2455 12.7899 -20.317 -23.459 24.6868 -54.5807 0.495016 13.7782 -0.0598084 -25.5008 1.55708 -2.83736 -6.47318 0.00521015 49.2373 0.0 0.0 0.0 -2.9795 -37.7073 -5.77393 -28.9624 0.0824084 4.39682 12.7934 29.1757 -1.93427 22.9587 -0.0 -0.0 -0.0 0.0 -0.0 -1.71202 32.3731 -12.3022 -32.7875 0.0727577 -4.96321 40.0768 -11.478 4.89588 -0.0109757 0.0 0.0 0.0 0.0 0.0 
1005.12 752.776 -1587.82 22.4013 47.5707 -11.0999 -3.84603 -0.253236 -2.04486 -3.84371 -0.122631 -2.05682 -3.83583 0.44811 -2.01118 -3.84145 0.124928 -2.05669 -10.7762 14.6204 13.0578 -10.4445 18.9826 16.3509 -0.0 0.0 -0.0 5.39764 3.88603 10.5154 -12.4342 -13.3116 57.611 1.72342 -40.485 0.635589 -15.7358 -0.811949 1.83465 0.182555 6.30417 3.82468 -0.0 0.0 -0.0 10.1721 12.7036 -20.1567 -24.0874 23.8449 -55.6553 0.518114 14.3949 -0.0654302 -26.0331 1.60252 -2.88825 -6.43834 -0.19293 48.7259 0.0 0.0 0.0 -3.86881 -37.229 -6.3896 -28.5916 0.0954291 4.3414 13.7348 27.4946 -2.0473 24.0717 -0.0 -0.0 -0.0 0.0 -0.0 -1.45499 30.5625 -11.5562 -33.4458 0.103265 -5.0596 39.7805 -8.76187 4.84917 0.272441 -0.0 -0.0 0.0 0.0 0.0 
